<?xml version="1.0" encoding="utf-8"?>
<!-- Generator: Adobe Illustrator 21.0.0, SVG Export Plug-In . SVG Version: 6.00 Build 0)  -->
<svg version="1.1" id="Layer_1" xmlns="http://www.w3.org/2000/svg" xmlns:xlink="http://www.w3.org/1999/xlink" x="0px" y="0px"
	 viewBox="0 0 1024 1024" style="enable-background:new 0 0 1024 1024;" xml:space="preserve">
<style type="text/css">
	.st0{fill:#00C7AC;}
	.st1{fill:#00A384;}
	.st2{fill:#00B294;}
	.st3{fill:#FFFFFF;}
</style>
<path class="st0" d="M1024,512c0,67.2-13,131.5-36.5,190.3c-1.4,3.6-2.9,7.2-4.5,10.8c-8.1,19-17.3,37.4-27.6,55.1
	c-4.6,7.9-9.3,15.7-14.3,23.3c-7,10.7-14.3,21.1-22.1,31.2c-2.6,3.4-5.2,6.8-7.9,10.1c-7.6,9.5-15.6,18.7-23.9,27.6
	c-0.8,0.8-1.5,1.7-2.3,2.5C791.5,962.1,659,1024,512,1024c-34.1,0-67.5-3.3-99.7-9.7c-100.2-19.8-189.9-68.8-259.9-137.8
	c-5.1-5-10.1-10.1-14.9-15.4c-32-34.3-59.3-73-81-115.1c-2.5-4.8-4.9-9.7-7.2-14.6c-10.5-22.1-19.5-45.1-26.8-68.9
	c-4.7-15.4-8.8-31.1-12-47.2C3.6,582,0,547.4,0,512c0-84.8,20.6-164.7,57.1-235.1C66.4,259,76.7,241.6,88,225
	C180,89.2,335.6,0,512,0c200.4,0,373.9,115.1,458,282.9c10.5,20.9,19.6,42.7,27.2,65.1c4.8,14.1,8.9,28.4,12.5,43
	c0.8,3.3,1.6,6.6,2.3,10c6.4,29.1,10.4,59.2,11.6,90C1023.9,497.9,1024,505,1024,512z"/>
<path class="st1" d="M1024,512c0,67.2-13,131.5-36.5,190.3c-1.4,3.6-2.9,7.2-4.5,10.8c-8.1,19-17.3,37.4-27.6,55.1
	c-4.6,7.9-9.3,15.7-14.3,23.3c-7,10.7-14.3,21.1-22.1,31.2c-2.6,3.4-5.2,6.8-7.9,10.1c-7.6,9.5-15.6,18.7-23.9,27.6
	c-0.8,0.8-1.5,1.7-2.3,2.5C791.5,962.1,659,1024,512,1024c-34.1,0-67.5-3.3-99.7-9.7l-207-207l-4.6-4.6L196,798l1.5-1.4l95-84.7
	l1.1-0.9l30.5,30.5l7.6,7.6c1.9,0.2,3.9-0.4,5.4-1.9l31.5-31.5l12.5-12.5l26.1-26.1c1.7-1.7,1.9-3.6,1.9-4.6s-0.3-3-1.9-4.6
	l-30.6-30.6l23.9-21.3l0,0l29.3,29.3c0.1,0.1,0.2,0.2,0.3,0.4c0.1,0.1,0.2,0.2,0.3,0.3l8.3,8.3c7.8,7.8,20.6,7.8,28.4,0L579.4,542
	L681,440.3c-6.3-2.6-12.1-6.4-17-11.4l-25.3-25.3l23.9-21.3l18.7,18.7l5.3,5.3c3.8,3.8,8.8,5.9,14.2,5.9s10.4-2.1,14.2-5.9l5.3-5.3
	l0.9-0.9l0.2-0.2l68.8-68.8c2.3-2.3,3.9-5,4.8-7.8c2.3-7,0.7-15-4.8-20.6l-18-18l23.9-21.3L1023.6,491
	C1023.9,497.9,1024,505,1024,512z"/>
<g>
	<path class="st2" d="M118.2,389.9H94.6c-6.4,0-9.6-15.6-9.6-46.9c0-1.8,0.5-21.9,1.5-60.3c0.9-35.5,1.4-54.8,1.5-57.7
		c-11.3,16.6-21.6,33.9-30.9,51.9c0,3.2,0,6.7,0,10.5c0,3.3-0.1,20.3-0.2,51.1c-0.1,30.8-0.2,46.6-0.2,47.4c0,2.7-1.2,4.1-3.7,4.1
		H24.7c-1,0-1.6,0.9-1.6,2.7v6.1c0,1.6,0.7,2.3,2,2.3h92.8c1.6,0,2.3-0.7,2.3-2v-7.2C120.2,390.5,119.5,389.9,118.2,389.9z"/>
	<path class="st2" d="M295.8,398.8c-15-13.7-43.8-20.5-86.3-20.5c-7.8,0-16.2-0.5-25.2-1.6c-6-0.6-9.8-1.5-11.5-2.5
		c-3-1.6-4.5-4.7-4.5-9.4c0-3.5,2-6.7,6.1-9.4c3.1-1.7,6.3-3.5,9.6-5.3c1.4-1,2.9-1.3,4.5-0.8c5.3,1.6,11.5,2.3,18.4,2.3
		c20.8,0,38.1-6.7,51.8-20.2c13.7-13.5,20.5-29.4,20.5-47.8c0-14.3-4.8-27.2-14.3-38.5c-1.1-1.2-1.6-2.2-1.6-3.1
		c0-1.4,2.2-1.8,6.6-1.2c10,1.3,17.6,2,22.9,2c5.1,0,8.4-0.8,10-2.3c4.5-5.7,6.8-11.6,6.8-17.6c0-3-0.6-4.5-1.9-4.5
		c-0.3,0-1.2,0.4-2.8,1.4c-1.6,0.9-3,1.5-4,1.8c-4.2,2-11.1,2.9-20.7,2.9c-15.6,0-27.1-0.7-34.6-2c-10.2-2-21.9-2.9-35.2-2.9
		c-22.5,0-39.9,6.5-52.2,19.5c-12.3,13-18.5,29.2-18.5,48.4c0,18.9,5.1,33.2,15.2,43c6.3,6,12,10.3,17.2,13.1c3.3,1.8,4,3.4,2.4,4.9
		c-5.9,4.2-11.7,8.3-17.6,12.5c-5.9,4.9-8.8,11.1-8.8,18.4c0,7.2,3.2,12.5,9.6,16c2.5,1.3,7.9,3.1,16.4,5.3c3.9,0.5,4,1.9,0.4,4.1
		c-15.1,6-24.4,10.9-27.9,14.8c-10.9,11.6-16.4,23.8-16.4,36.5c0,11.6,5.5,21.8,16.4,30.7c13.1,10.7,32.6,16,58.4,16
		c37.8,0,65.8-8.3,84-24.8c14.8-13.6,22.3-27.6,22.3-42.2C311,420.5,305.9,408.1,295.8,398.8z M173.1,315.8
		c-5.6-10.5-8.4-24.1-8.4-40.8c0-13.2,2.8-24,8.4-32.4c4.4-6.6,13.2-10,26.4-10c13.9,0,26.3,5.7,37.1,17.2
		c9.4,9.8,14.1,24.7,14.1,44.7c0,15.1-3.3,27-10,35.8c-5.9,7.4-14.9,11.1-27.1,11.1C195.7,341.4,182.2,332.9,173.1,315.8z
		 M284.4,463.9c-2.5,3.6-7.5,8.4-15,14.3c-12.5,9.9-30.6,14.8-54.3,14.8c-21.6,0-38.6-4-50.8-12.1c-10.2-6.5-15.2-15.1-15.2-25.8
		c0-12.6,4.9-23.8,14.8-33.4c9.2-9.1,24-13.7,44.3-13.7c22.4,0,42.1,3.5,59.2,10.4c7.3,3,13,7.8,17,14.3c3.1,4.9,4.7,9.6,4.7,14.1
		C289.1,453.6,287.6,459.3,284.4,463.9z"/>
	<path class="st2" d="M522.3,390.6h-26.8c-3.5,0-5.3-14-5.3-42c0-1.7,0.3-14.2,0.8-37.5s0.8-35.5,0.8-36.5
		c0-19.1-5.1-33.4-15.2-42.8c-8.9-8.3-19.1-12.5-30.7-12.5c-11.2,0-23.3,3.1-36.1,9.2c-6.4,3.9-11.3,7.1-14.6,9.6
		c-6.3,4.4-10.8,7.5-13.7,9.4c-1.6,1-2.3-0.2-2.3-3.7c0-12.1,0.6-37.7,1.8-76.8c1.1-37.9,1.7-56.9,1.8-56.9c0-4.3-1.1-6.4-3.1-6.4
		c-0.7,0-6,2-16,6.1c-15.6,3.4-26.7,5.1-33.2,5.1h-8.4c-1.2,0-1.8,0.2-2.1,0.5c-0.2,0.3-0.3,0.8-0.3,1.5v6c0,1.2,0.2,1.9,0.5,2
		c0.3,0.2,0.8,0.3,1.5,0.3h25.2c4,0,6.1,15.2,6.1,45.7v216.4c0,2.2-1,3.3-2.9,3.3h-23.6c-1.6,0-2.3,0.8-2.3,2.3v6.5
		c0,1,0.6,1.6,1.9,1.6H415c1,0,1.6-0.5,1.6-1.6v-6.8c0-1-0.5-1.6-1.6-1.6h-26.8c-5.3,0-8-16.3-8-48.8c0-1.6-0.1-15.2-0.2-40.9
		c-0.1-25.7-0.2-38.8-0.2-39.2c0-2.3,0.8-4,2.3-5.1c12-8.1,27.5-12.1,46.5-12.1c14.8,0,24.7,3.6,29.5,10.9
		c4.5,6.6,6.8,18.3,6.8,35.1c0,0,0.1,5.2,0.4,15.5c0.3,11.1,0.4,22.1,0.4,33c0,18.1-0.8,33.5-2.4,46.3c-0.4,3.3-1.5,4.9-3.3,4.9h-18
		c-1.3,0-2,0.9-2,2.7v5.7c0,1.3,0.6,2,2,2h80.5c1.3,0,2-0.5,2-1.6v-6.8C524.3,391.3,523.6,390.6,522.3,390.6z"/>
	<path class="st2" d="M628.6,389.9h-28.3c-3.7,0-6-8.5-6.8-25.5c-0.3-5.2-0.4-11.1-0.4-17.8c0-1.3,0.1-10.3,0.3-27.3
		c0.2-19.9,0.5-50.6,0.9-92.1c0.8-76.8,1.2-115.4,1.2-115.8c0-3.7-1.1-5.6-3.3-5.6c0.6,0.1-3.9,1.5-13.4,4c-10.1,2.7-19.7,4-28.8,4
		h-15.2c-1,0-1.6,0.9-1.6,2.7v6.4c0,1.6,0.8,2.3,2.3,2.3h24c5.1,0,7.6,14.5,7.6,43.4v216.8c0,3-1.4,4.5-4.1,4.5h-31.8
		c-1.4,0-2.1,0.8-2.1,2.3v6.8c0,1.3,0.9,2,2.5,2h97.1c1.4,0,2.1-0.5,2.1-1.6v-7.6C630.7,390.5,630,389.9,628.6,389.9z"/>
	<path class="st2" d="M735.4,389.9h-23.6c-6.4,0-9.6-15.6-9.6-46.9c0-1.8,0.5-21.9,1.5-60.3c0.3-11.5,0.5-21.3,0.8-29.4
		c0.5-18.9,0.7-28.4,0.7-28.7c0-4-1.5-6-4.5-6c0.5,0-1.3,0.2-5.2,0.6c-1.7,0.2-3.8,0.4-6.3,0.6c-11.2,1-22.9,1.6-35,1.6h-11.5
		c-1.3,0-2,0.8-2,2.5v6.8c0,1.3,1,2,3.1,2h19.3c3.8,0,6.6,2.8,8.5,8.3c0.9,2.7,1.6,6,2.1,9.9c0.4,3.8,0.6,14.7,0.6,32.7
		c0,1.2,0,2.5,0,3.8c0,3.3-0.1,20.3-0.2,51.1c-0.1,30.8-0.2,46.6-0.2,47.4c0,2.7-1.2,4.1-3.7,4.1h-28.3c-1,0-1.6,0.9-1.6,2.7v6.1
		c0,1.6,0.6,2.3,2,2.3H735c1.6,0,2.3-0.7,2.3-2v-7.2C737.4,390.5,736.7,389.9,735.4,389.9z M693.4,139.5c-7.5,0-13.9,3.1-19.1,9.4
		c-4.3,5.2-6.5,10.4-6.5,15.4c0,8.5,4.3,12.7,12.9,12.7c4.7,0,9.7-2.3,15-6.8c6.3-5.3,9.4-11.5,9.4-18.4
		C705.1,143.6,701.2,139.5,693.4,139.5z"/>
	<path class="st2" d="M913,398.8c-15-13.7-43.8-20.5-86.3-20.5c-7.8,0-16.2-0.5-25.2-1.6c-4.5-0.5-7.8-1.1-9.9-1.8
		c-0.7-0.2-1.2-0.5-1.6-0.7c-3-1.6-4.5-4.7-4.5-9.4c0-3.5,2-6.7,6-9.4c3.1-1.7,6.3-3.5,9.6-5.3c1.4-1,2.9-1.3,4.5-0.8
		c2.9,0.9,6.1,1.5,9.5,1.8c2.8,0.3,5.8,0.5,8.9,0.5c20.8,0,38.1-6.7,51.8-20.2s20.5-29.4,20.5-47.8c0-14.3-4.8-27.2-14.3-38.5
		c-1-1.2-1.6-2.2-1.6-3.1c0-1.4,2.2-1.8,6.6-1.2c10,1.3,17.7,2,22.9,2c5.1,0,8.4-0.8,10-2.3c4.5-5.7,6.8-11.6,6.8-17.6
		c0-3-0.7-4.5-2-4.5c-0.3,0-1.2,0.4-2.8,1.4c-1.6,0.9-3,1.5-4,1.8c-4.2,2-11.1,2.9-20.7,2.9c-15.6,0-27.1-0.7-34.6-2
		c-10.2-2-21.9-2.9-35.2-2.9c-22.5,0-39.9,6.5-52.2,19.5c-0.5,0.6-1.1,1.1-1.6,1.7c-7.7,8.7-12.8,18.7-15.2,30
		c-1.1,5.3-1.7,10.8-1.7,16.7c0,18.9,5.1,33.2,15.2,43c3.5,3.4,6.9,6.2,10.1,8.6c2.5,1.8,4.8,3.3,7.1,4.5c3.3,1.8,4,3.4,2.3,4.9
		c-5.9,4.2-11.7,8.3-17.6,12.5c-5.9,4.9-8.8,11.1-8.8,18.4c0,6.3,2.4,11.1,7.3,14.6c0.7,0.5,1.5,1,2.3,1.4c2.5,1.3,7.9,3.1,16.4,5.3
		c3.9,0.5,4,1.9,0.4,4.1c-15.1,6-24.4,10.9-27.9,14.8c-10.9,11.6-16.4,23.8-16.4,36.5c0,11.6,5.5,21.8,16.4,30.7
		c13.1,10.7,32.6,16,58.4,16c37.8,0,65.8-8.3,84-24.8c14.8-13.6,22.3-27.6,22.3-42.2C928.2,420.5,923.1,408.1,913,398.8z M781.9,275
		c0-8.4,1.1-15.8,3.4-22.3c1.3-3.7,2.9-7.1,5-10.1c4.4-6.6,13.2-10,26.4-10c13.9,0,26.3,5.7,37.1,17.2c9.4,9.8,14.1,24.7,14.1,44.7
		c0,15.1-3.3,27-10,35.8c-5.9,7.4-14.9,11.1-27.2,11.1c-2.9,0-5.8-0.2-8.5-0.7c-11.1-1.9-20.2-7.7-27.3-17.4
		c-1.7-2.3-3.2-4.8-4.7-7.5c-3-5.6-5.2-12.1-6.6-19.5C782.5,289.9,781.9,282.8,781.9,275z M901.6,463.9c-2.5,3.6-7.5,8.4-15,14.3
		C874.1,488,856,493,832.3,493c-21.6,0-38.5-4-50.8-12.1c-10.1-6.5-15.2-15.1-15.2-25.8c0-12.6,4.9-23.8,14.8-33.4
		c9.3-9.1,24-13.7,44.3-13.7c22.4,0,42.1,3.5,59.2,10.4c7.3,3,13,7.8,17,14.3c3.1,4.9,4.7,9.6,4.7,14.1
		C906.3,453.6,904.8,459.3,901.6,463.9z"/>
	<path class="st2" d="M1009.6,391h-4.5c-5,0-7.7-14.3-8-43c-7.6-22.5-16.7-44.2-27.2-65.1v104.5c0,2.2-1,3.3-2.9,3.3h-23.6
		c-1.6,0-2.4,0.8-2.4,2.3v6.5c0,1,0.6,1.6,2,1.6h68.9C1011.2,397.7,1010.4,394.3,1009.6,391z"/>
	<path class="st2" d="M163.1,850.5c-1,0.5-4,2.2-8.8,4.9c-4.6,2.1-10.2,4-16.9,5.7c4.9,5.2,9.9,10.4,14.9,15.4
		c4.6-8.7,8.6-16.5,11.9-23.4C164.8,851.4,164.4,850.5,163.1,850.5z M152.8,614.6c0,0-1.9,0.1-5.8,0.4c-4,0.3-7.1,0.4-9.5,0.4H10.4
		c3.3,16,7.3,31.7,12.1,47.2c0.2-20.4,0.4-31,0.7-31.9c0.6-1.6,1.7-2.3,3.2-2.3c47.3,0.5,78.2,2.1,92.8,4.7c10.4,2,18,5.3,22.9,10
		l2.7,2.9c1,0,2.1-1.5,3.1-4.5c2.7-9.4,5-17.6,6.8-24.8C155.1,615.2,154.5,614.6,152.8,614.6z M134.8,705c0-2.2-0.8-3.3-2.3-3.3
		h-2.9c-1.6,0-2.3,1.2-2.3,3.7c-0.1,0.7-0.6,4.2-1.3,10.6c-0.7,6.4-1.2,10.5-1.6,12.5c-0.3,1.9-1.4,2.9-3.2,2.9H49.3
		c2.3,4.9,4.7,9.8,7.2,14.6c4.8,0.1,10.2,0.2,16.2,0.3c30.9,0.5,47,0.8,48.1,0.8c2.1,0,3.3,1.3,3.7,3.9c0.8,11.5,1.4,21.4,2,29.7
		c0.3,1.8,1,2.7,2.3,2.7h3.1c1.4,0,2.1-1.4,2.1-4.3c0-0.8-0.1-7-0.4-18.8c-0.3-11.7-0.4-18.6-0.4-20.5c0-2,0.3-8.1,0.8-18.5
		C134.6,711,134.8,705.5,134.8,705z"/>
	<path class="st2" d="M295.2,589.8c-6.1-4.2-13-6.3-20.7-6.3c-18.1,0-32.8,4.7-43.9,14.1c-14.7,12.1-22.1,27.9-22.1,47.3v55.3
		c0,1.9-0.7,2.9-2.1,2.9c-1.4,0-4.3,0.1-8.6,0.2c-4.3,0.1-6.7,0.2-7.2,0.2c-1.6,0-2.3,1-2.3,3.1v6.8c0,1.3,0.1,2.1,0.4,2.3
		c0.3,0.3,0.8,0.4,1.6,0.4c9.1-0.3,14.4-0.4,16-0.4s2.4,1.6,2.4,4.9v94.7c0,1.6,0.2,10.4,0.6,26.6c0.4,16.1,0.6,24.6,0.6,25.4
		c0,2.2-0.9,3.3-2.7,3.3h-26.8c-1.2,0-1.9,0.2-2.1,0.5c-0.2,0.3-0.4,0.8-0.5,1.5v7.2c0,0.8,0.7,1.2,2.1,1.2h98.8
		c1.1,0,1.6-0.7,1.6-2v-6.5c0-1-0.7-1.6-2.2-1.6h-35.2c-5.1,0-7.6-13.5-7.6-40.4c0-1.1,0-7.3-0.1-18.8c-0.1-9.3-0.2-22.1-0.3-38.3
		c-0.1-14-0.2-25.3-0.2-34c-0.1-13.8-0.2-20.9-0.2-21.4c0-1.8,1.1-2.7,3.3-2.7c0.5,0,6.8,0.1,18.9,0.4c0.4,0,0.9,0,1.4,0
		c13,0.3,20,0.4,20.9,0.4c1.3,0,2-0.8,2-2.3V705c0-1.3-0.7-2-2-2c-7.9,0.1-14.6,0.1-20.4,0.2c-12.9,0.1-20.3,0.2-22.2,0.2
		c-1.6,0-2.4-1.4-2.4-4.1c0-13,0.1-26.3,0.2-39.8c0.1-12.4,0.2-18.5,0.2-18.5c0-17.3,3.5-30.1,10.4-38.3c4.4-5,9.1-7.4,14.1-7.4
		c1.2,0,2.8,0.6,4.9,2c9,9,18,13.5,27.1,13.5c8.3,0,12.5-3.5,12.5-10.4C303.4,597.1,300.6,593.6,295.2,589.8z"/>
	<path class="st2" d="M410.8,589.8c-6.1-4.2-13-6.3-20.7-6.3c-3.6,0-7.1,0.2-10.4,0.6c-12.3,1.4-22.8,5.3-31.3,11.8
		c-0.7,0.5-1.5,1.1-2.2,1.7c-8.1,6.7-14,14.5-17.6,23.4c-2.9,7.2-4.4,15.2-4.4,23.8v55.3c0,1.9-0.7,2.9-2.2,2.9
		c-1.4,0-4.3,0.1-8.6,0.2c-4.3,0.1-6.7,0.2-7.2,0.2c-1.6,0-2.3,1-2.3,3.1v6.8c0,1.3,0.1,2.1,0.4,2.3c0.3,0.3,0.8,0.4,1.6,0.4
		c9.1-0.3,14.5-0.4,16-0.4s2.3,1.6,2.3,4.9v94.7c0,1.6,0.2,10.4,0.6,26.6c0.4,16.1,0.6,24.6,0.6,25.4c0,2.2-0.9,3.3-2.7,3.3h-26.8
		c-1.2,0-1.9,0.2-2.1,0.5s-0.4,0.8-0.5,1.5v7.2c0,0.8,0.7,1.2,2.2,1.2h98.8c1,0,1.6-0.7,1.6-2v-6.5c0-1-0.7-1.6-2.2-1.6h-35.1
		c-5.1,0-7.6-13.5-7.6-40.4c0-1.9-0.1-19.9-0.4-54c0-1,0-2.1,0-3.1c-0.1-17.1-0.2-30.3-0.3-39.4c-0.1-10.2-0.1-15.5-0.1-15.9
		c0-1.8,1.1-2.7,3.3-2.7c0.5,0,5.5,0.1,15.2,0.3c1.6,0,3.3,0.1,5.1,0.1c13,0.3,20,0.4,20.9,0.4c1.3,0,1.9-0.8,1.9-2.3V705
		c0-1.3-0.6-2-1.9-2c-4.9,0-9.5,0.1-13.6,0.1c-17.1,0.2-26.8,0.3-29,0.3c-1.6,0-2.3-1.4-2.3-4.1c0-13,0.1-26.3,0.2-39.8
		c0.1-6.8,0.1-11.7,0.2-14.7c0-2.5,0.1-3.8,0.1-3.8c0-17.3,3.5-30.1,10.3-38.3c4.4-5,9.1-7.4,14.1-7.4c1.2,0,2.8,0.6,4.9,2
		c3.8,3.8,7.6,6.8,11.5,9c5.2,3,10.4,4.5,15.7,4.5c8.3,0,12.5-3.5,12.5-10.4C419,597.1,416.3,593.6,410.8,589.8z"/>
	<path class="st2" d="M569.8,853.1c-0.4-0.9-0.9-1.4-1.6-1.4c-0.8,0.4-1.4,0.7-1.8,1c-2.1,2.1-5.9,4-11.5,5.9
		c-7.9,2.7-18.1,4.1-30.5,4.1c-24.1,0-41.4-4.6-51.9-13.7c-19.7-17.1-29.5-39.1-29.5-66c0-6.1,0.8-9.2,2.3-9.2
		c0.9,0,4.1-0.1,9.5-0.2c5.4-0.1,8.5-0.2,9.3-0.2c9.1,0,27.4-2.5,54.9-7.6c24.1-4.4,38.6-7.6,43.6-9.6c2.3-0.9,3.5-2.1,3.5-3.5
		c0-1.7-0.5-3.7-1.6-6.1c-4.3-9.4-12.6-18.4-24.8-27.2c-10.3-7.4-17.8-12.2-22.5-14.4c-6-3-13.7-4.5-23-4.5
		c-19.5,0-35.9,6.6-49.2,19.7c-11.5,11.2-19.5,26.5-24,45.9c-1.8,7.9-2.7,20.4-2.7,37.3c0,23.7,8.3,43.8,24.8,60.3
		c13.5,13.5,31.8,20.3,54.7,20.3c15.4,0,29.6-2.9,42.8-8.8c8.2-3.6,14.7-7.2,19.5-10.5c2.7-2,6.1-5,10.2-9c0.3-0.5,0.4-0.9,0.4-1.2
		C570.3,854,570,853.5,569.8,853.1z M449.3,743.1c3.1-7.8,6-13.6,8.8-17.4c7.6-10,15.4-15,23.6-15c11.1,0,20.8,3.3,29.3,9.8
		c8.5,6.5,15.5,14.7,21.1,24.6c1.3,2.3,2,4,2,5.1c0,1.6-1,2.8-3.1,3.7c-11.3,4.3-28.3,7.4-50.8,9.2c-22.4,1.7-33.7,2.6-33.7,2.7
		c-1.5,0-2.3-1.1-2.3-3.1C444.2,758.1,445.9,751.6,449.3,743.1z"/>
	<path class="st2" d="M741.9,845c-1,0-1.8,0.1-2.4,0.4c-2.2,1.6-4.1,2.9-5.7,3.9c-11.3,8.1-25.1,12.1-41.2,12.1
		c-12,0-20.8-0.6-26.4-2c-10.9-2.3-20.2-7.4-27.7-15.2c-16.8-17.7-25.2-39.2-25.2-64.4c0-24.7,5.2-42.9,15.6-54.5
		c6.3-6.9,14.8-11.4,25.6-13.5c4.2-0.8,9.5-1.2,16-1.2c5.1,0,10.1,0.4,15.1,1.2s8,2.7,8.9,5.9c2.2,7.6,6.4,14.4,12.5,20.5
		c6.8,6.7,13.4,10,19.9,10c4.8,0,7.2-3.1,7.2-9.2c0-5.9-3.7-12.4-11.1-19.5c-13.9-13.4-31.1-20.1-51.4-20.1
		c-22.8,0-40.6,5.6-53.5,16.8c-11.8,10.3-19.8,23.1-24,38.5c-3.1,11.7-4.7,24.3-4.7,37.9c0,20.2,3.7,36.8,11.1,50
		c9.1,16.3,19.9,27.8,32.4,34.6c8.3,4.4,19.7,6.6,34,6.6c24.1,0,46.6-8.1,67.6-24.4c6.4-5,9.6-8.4,9.6-10.4
		C744.2,847.8,743.4,846.5,741.9,845z"/>
	<path class="st2" d="M885.8,853.8c-0.4,0-3.2,1.2-8.4,3.5c-12,4-22.4,6-31.3,6c-16.1,0-26-2.9-29.5-8.8c-3.3-5.2-4.9-13.5-4.9-24.8
		V721.4c0-1.3,0.8-2,2.3-2c0.8,0,11.2,0.1,31.3,0.2c20.1,0.1,30.8,0.2,31.9,0.2c1.7,0,2.9-1,3.5-2.9c2-4.8,2.9-8.5,2.9-11.1
		c0.8-2.7-0.2-4.1-2.9-4.1c-0.7,0-11.7,0.4-33,1.1c-21.4,0.7-32.6,1.1-33.8,1.1c-1.3,0-2-2.1-2-6.4c0-8.9,0.8-17.5,2.3-26
		c0.8-3.8,0.1-5.7-1.9-5.7c-1.4,0-3.1,0.7-5.1,2c-14.7,12.2-28.6,23.9-41.6,35c-1.9,1.4-2.9,3-2.9,4.7c-0.1,2.2,0.6,3.7,2.3,4.5
		c8.2,3.5,13.3,5.8,15.2,6.8c2.5,1.2,3.7,3.1,3.7,5.9c0,0.5,0.1,5.6,0.4,15.1c0.3,9.6,0.4,15.2,0.4,16.9c0,1.4-0.3,15.8-0.8,43
		s-0.8,41.7-0.8,43.4c0,27.7,13.6,41.6,40.8,41.6c12.6,0,26.3-3.5,41-10.4c7.9-3.6,14.4-7.3,19.5-11.2c0.5-0.3,0.9-0.7,1.4-1.1
		c0.4-0.4,0.7-0.9,1-1.4c0.4-0.8,0.6-1.9,0.6-3C887.8,855,887.1,853.8,885.8,853.8z"/>
	<path class="st2" d="M918.2,819.9c-0.5-2-1.9-2.9-4.1-2.9c-2.1,0-3.1,1.2-3.1,3.7c0,4.4,0,8.5,0,12.2c2.7-3.3,5.3-6.7,7.9-10.1
		C918.5,821.2,918.2,820.2,918.2,819.9z M974.7,701.7c-19.8,0-34.9,5.5-45.3,16.4c-8.2,8.7-12.3,18.9-12.3,30.5
		c0,14.3,4.7,26,14.1,35.1c2.6,2.6,5.9,5.2,9.9,7.8c5-7.6,9.8-15.4,14.3-23.3c-12.5-6.4-18.8-15.5-18.8-27.3
		c0-9.5,4.2-16.7,12.5-21.5c7.2-4.3,16.5-6.4,27.9-6.4c2.1,0,4.1,0,6,0.1c1.5-3.6,3-7.2,4.5-10.8
		C983.4,701.9,979.1,701.7,974.7,701.7z"/>
</g>
<g>
	<g>
		<path class="st3" d="M812.7,280.1L773.6,241l-14.2-14.2c-9.8-9.8-22.9-15.3-36.8-15.3c-9.7,0-19.1,2.7-27.2,7.6
			c-3.5,2.1-6.7,4.7-9.7,7.6l-14.1,14.1l-54.9,54.9l-6.6,6.6c-0.2,0.1-0.3,0.3-0.5,0.5l-16.4,16.4L567,345.5l-45.2,45.2L511.5,401
			L362.8,549.8c-9.8,9.8-15.3,22.9-15.3,36.8c0,3.1,0.3,6.3,0.8,9.3c0.4,2.2,0.9,4.4,1.6,6.6c-3.7,1.8-7.1,4.2-10.2,7.3l-70.1,70.1
			c-6.4,6.4-10.3,14.6-11.1,23.5c-0.1,1.3-0.2,2.5-0.2,3.8c0,2.1,0.2,4.2,0.5,6.3l-2.2,2.4l-22.1,23.8l-26.1,28l-6.1,6.6
			c-5.7,6.1-7.5,14.7-4.8,22.5c0.2,0.6,0.4,1.1,0.7,1.7c0.7,1.6,1.5,3.1,2.5,4.4c1.3,1.8,2.8,3.3,4.6,4.6c1,0.8,2,1.4,3.1,2
			c3.1,1.6,6.6,2.5,10.3,2.5h62.7c9,0,17.5-3.5,23.8-9.9l21.3-21.3c1.9,0.3,3.8,0.4,5.8,0.4c6.2,0,12.4-1.5,18-4.5
			c3.3-1.8,6.4-4,9.2-6.8l70.1-70.1c3-3,5.5-6.5,7.3-10.2c5.1,1.6,10.5,2.4,15.8,2.4c13.3,0,26.7-5.1,36.8-15.2l247.4-247.4l0.5-0.5
			l6.1-6.1l28.7-28.7l19.1-19.1l21.2-21.2c0.8-0.8,1.6-1.6,2.3-2.5c2.9-3.3,5.3-6.8,7.2-10.6C832.3,321.1,829.1,296.5,812.7,280.1z
			 M407.2,677.1L381,703.2l-12.5,12.5L337,747.2c-1.5,1.5-3.5,2.1-5.4,1.9c-1.4-0.2-2.8-0.8-3.9-1.9l-3.7-3.7l-31.7-31.7
			c-1.3-1.3-1.8-2.8-1.9-3.9c0-0.3,0-0.5,0-0.8c0-1,0.3-3,1.9-4.6l70.1-70.1c2.6-2.6,6.7-2.6,9.3,0l4.8,4.8l30.6,30.6
			c1.7,1.7,1.9,3.6,1.9,4.6C409.1,673.4,408.8,675.4,407.2,677.1z M579.5,541.8L467.1,654.1c-7.8,7.8-20.6,7.8-28.4,0l-8.3-8.3
			c-0.1-0.1-0.2-0.2-0.3-0.3L394,609.4c-0.1-0.1-0.2-0.2-0.4-0.4l-2.8-2.8l-5.4-5.4c-3.8-3.8-5.9-8.8-5.9-14.2c0-0.8,0-1.7,0.2-2.5
			c0.5-4.4,2.5-8.5,5.7-11.7l89.7-89.7l81.7-81.7l36.7-36.7l5.8-5.8c2.6,6.3,6.4,12.1,11.4,17l14.3,14.3l5.8,5.8l7.9,7.9l25.3,25.3
			c5,5,10.7,8.8,17,11.4L579.5,541.8z M795,323.3c-1,2.9-2.6,5.6-4.8,7.8l-68.8,68.8l-0.2,0.2l-0.9,0.9l-5.3,5.3
			c-3.8,3.8-8.8,5.9-14.2,5.9s-10.4-2.1-14.2-5.9l-5.3-5.3l-48.1-48.1c-3.8-3.8-5.9-8.8-5.9-14.2c0-5.4,2.1-10.4,5.9-14.2l6.3-6.3
			l33.8-33.8l0.9-0.9l30.1-30.2l4-3.9c3.8-3.8,8.8-5.9,14.2-5.9s10.4,2.1,14.2,5.9l21.6,21.6l13.7,13.7l18,18
			C795.7,308.3,797.3,316.3,795,323.3z"/>
	</g>
	<g>
		<path class="st3" d="M610.6,301.9c-0.2,0.2-0.3,0.3-0.4,0.5l6.6-6.6L610.6,301.9z"/>
	</g>
	<g>
		<path class="st3" d="M429.8,645.1l-29.3-29.3l0,0l29.7,29.7C430,645.4,429.9,645.3,429.8,645.1z M394.3,609.7
			c-0.1-0.1-0.2-0.2-0.3-0.3l6.4,6.4L394.3,609.7z"/>
	</g>
	<g>
		<path class="st3" d="M324.1,741.5L293.6,711l-3.2-3.2c0.1,1.1,0.6,2.6,1.9,3.9l31.7,31.7l3.7,3.7c1.1,1.1,2.4,1.7,3.9,1.9
			L324.1,741.5z"/>
	</g>
</g>
</svg>
