<svg width="128" height="128" viewBox="0 0 128 128" fill="none" xmlns="http://www.w3.org/2000/svg">
<path d="M128 64C128 72.4 126.375 80.4375 123.438 87.7875C123.263 88.2375 123.075 88.6875 122.875 89.1375C121.862 91.5125 120.713 93.8125 119.425 96.025C118.85 97.0125 118.262 97.9875 117.637 98.9375C116.762 100.275 115.85 101.575 114.875 102.838C114.55 103.263 114.225 103.687 113.887 104.1C112.937 105.287 111.938 106.438 110.9 107.55C110.8 107.65 110.713 107.763 110.613 107.863C98.9375 120.263 82.375 128 64 128C59.7375 128 55.5625 127.587 51.5375 126.787C39.0125 124.312 27.8 118.188 19.05 109.562C18.4125 108.938 17.7875 108.3 17.1875 107.637C13.1875 103.35 9.775 98.5125 7.0625 93.25C6.75 92.65 6.45 92.0375 6.1625 91.425C4.85 88.6625 3.725 85.7875 2.8125 82.8125C2.225 80.8875 1.7125 78.925 1.3125 76.9125C0.45 72.75 0 68.425 0 64C0 53.4 2.575 43.4125 7.1375 34.6125C8.3 32.375 9.5875 30.2 11 28.125C22.5 11.15 41.95 0 64 0C89.05 0 110.738 14.3875 121.25 35.3625C122.562 37.975 123.7 40.7 124.65 43.5C125.25 45.2625 125.763 47.05 126.213 48.875C126.313 49.2875 126.413 49.7 126.5 50.125C127.3 53.7625 127.8 57.525 127.95 61.375C127.987 62.2375 128 63.125 128 64Z" fill="#1E3E39"/>
<path d="M107.99 17.514C112.993 22.2507 117.232 27.7871 120.503 33.9193L97.9365 56.4863C96.5442 57.8787 93.9768 57.5688 92.2021 55.7942L84.1692 47.7612C82.3945 45.9866 82.0847 43.4192 83.4771 42.0269L107.99 17.514Z" fill="#00C7AC"/>
<path d="M17.1875 107.637C17.2817 107.742 17.3767 107.845 17.4722 107.948C17.6016 107.986 17.7319 108.023 17.8633 108.059C20.1504 108.686 22.366 109 24.51 109C28.0837 109 31.1094 108.421 33.5872 107.262C36.0647 106.056 37.947 104.415 39.2334 102.339C40.5676 100.263 41.2346 97.8979 41.2346 95.2432C41.2346 92.9263 40.782 90.9473 39.8767 89.3062C39.019 87.6167 37.8516 86.1685 36.3745 84.9619C34.8975 83.7551 33.2537 82.6931 31.4429 81.7761C29.6323 80.8105 27.8218 79.9177 26.011 79.0972C23.9622 78.1316 22.0085 77.1421 20.1504 76.1284C18.3396 75.0667 16.8625 73.8599 15.719 72.5083C14.5754 71.1084 14.0037 69.3948 14.0037 67.3674C14.0037 65.0989 14.7898 63.1199 16.3623 61.4304C17.9346 59.741 20.198 58.8962 23.1521 58.8962C25.9634 58.8962 28.2744 59.5479 30.085 60.8511C31.8955 62.1545 33.2773 63.8438 34.2302 65.9194C35.1833 67.9951 35.7312 70.1914 35.8743 72.5083H38.4473V56.5793H34.8022L35.0881 59.6926C33.1345 58.2446 31.0142 57.2793 28.7271 56.7964C26.4875 56.2656 24.4624 56 22.6519 56C19.7454 56 17.3391 56.4346 15.4331 57.3032C13.575 58.124 12.0977 59.21 11.002 60.5615C9.95361 61.8647 9.21509 63.2405 8.78613 64.6885C8.35742 66.1367 8.14307 67.4883 8.14307 68.7432C8.14307 71.0601 8.57178 73.0393 9.42944 74.6804C10.3347 76.3215 11.5022 77.7456 12.9316 78.9521C14.4087 80.1106 16.0288 81.1484 17.7917 82.0657C19.5547 82.9827 21.3416 83.8516 23.1521 84.6721C25.2009 85.6377 27.1309 86.6511 28.9414 87.7131C30.752 88.7751 32.229 90.03 33.3726 91.4783C34.5164 92.9263 35.0881 94.7363 35.0881 96.9084C35.0881 98.8394 34.6116 100.48 33.6587 101.832C32.7532 103.184 31.5144 104.221 29.9419 104.945C28.3696 105.621 26.6543 105.959 24.7959 105.959C21.0317 105.959 17.8154 104.873 15.1472 102.701C12.479 100.48 11.0256 97.2463 10.7874 92.9988H8L8.05859 95.1073C10.594 99.6541 13.6626 103.859 17.1875 107.637Z" fill="#00C7AC"/>
<path d="M82.6289 51.8718C80.8545 50.0972 78.2871 49.7874 76.8948 51.1799L67.6187 60.4558L85.2917 65.6624L85.4194 65.79L88.4622 62.7473C89.8545 61.355 89.5447 58.7876 87.77 57.0129L82.6289 51.8718Z" fill="#00C7AC"/>
<path d="M64.9907 109C61.7983 109 58.8442 108.276 56.1282 106.828C53.46 105.332 51.3157 103.208 49.6958 100.456C48.1233 97.6567 47.3372 94.302 47.3372 90.3921C47.3372 87.8821 47.7898 85.4446 48.6951 83.0793C49.6003 80.7141 50.863 78.5903 52.4832 76.7078C54.1509 74.7769 56.1282 73.2563 58.4153 72.1462C60.7024 71.0361 63.2278 70.481 65.9915 70.481C68.6597 70.481 70.9707 70.8911 72.9243 71.7119C74.9255 72.5325 76.4741 73.6184 77.5698 74.97C78.6658 76.3215 79.2139 77.7937 79.2139 79.3867C79.2139 80.4485 78.928 81.3657 78.3562 82.1379C77.7844 82.8621 76.9504 83.2241 75.8545 83.2241C74.6633 83.2725 73.8057 82.9104 73.2815 82.1379C72.8052 81.3174 72.5669 80.5935 72.5669 79.9658C72.5669 79.4832 72.6384 79.0005 72.7812 78.5178C72.9243 77.9868 73.2102 77.5042 73.6389 77.0698C73.2578 75.9114 72.5908 75.0667 71.6377 74.5356C70.6848 73.9563 69.6841 73.5942 68.636 73.4495C67.6353 73.2563 66.8015 73.1599 66.1343 73.1599C62.8943 73.1599 60.1545 74.4873 57.915 77.1421C55.7231 79.7488 54.6274 83.562 54.6274 88.582C54.6274 91.8162 55.1277 94.6882 56.1282 97.1982C57.1765 99.7083 58.6299 101.687 60.488 103.135C62.3464 104.535 64.4905 105.235 66.9207 105.235C69.1599 105.235 71.3042 104.632 73.353 103.425C75.4019 102.218 76.998 100.746 78.1416 99.0083L80 100.456C78.7612 102.484 77.2603 104.125 75.4973 105.38C73.782 106.635 71.9951 107.552 70.1367 108.131C68.3262 108.71 66.6108 109 64.9907 109Z" fill="#00C7AC"/>
</svg>
