<svg width="128" height="128" viewBox="0 0 128 128" fill="none" xmlns="http://www.w3.org/2000/svg">
<g clip-path="url(#clip0_12_51)">
<path d="M128 63.9915C128 72.3915 126.375 80.429 123.437 87.779C123.262 88.229 123.075 88.679 122.875 89.129C121.862 91.504 120.712 93.804 119.425 96.0165C118.85 97.004 118.262 97.979 117.637 98.929C116.762 100.266 115.85 101.566 114.875 102.829C114.55 103.254 114.225 103.679 113.887 104.091C112.937 105.279 111.937 106.429 110.9 107.541C110.8 107.641 110.712 107.754 110.612 107.854C98.9373 120.254 82.3748 127.991 63.9998 127.991C59.7373 127.991 55.5623 127.579 51.5373 126.779C39.0123 124.304 27.7998 118.179 19.0498 109.554C18.4123 108.929 17.7873 108.291 17.1873 107.629C13.1873 103.341 9.77476 98.504 7.06226 93.2415C6.74976 92.6415 6.44976 92.029 6.16226 91.4165C4.84976 88.654 3.72476 85.779 2.81226 82.804C2.22476 80.879 1.71226 78.9165 1.31226 76.904C0.449756 72.7415 -0.000244141 68.4165 -0.000244141 63.9915C-0.000244141 53.3915 2.57476 43.404 7.13726 34.604C8.29976 32.3665 9.58726 30.1915 10.9998 28.1165C22.4998 11.1415 41.9498 -0.00854492 63.9998 -0.00854492C89.0498 -0.00854492 110.737 14.379 121.25 35.354C122.562 37.9665 123.7 40.6915 124.65 43.4915C125.25 45.254 125.762 47.0415 126.212 48.8665C126.312 49.279 126.412 49.6915 126.5 50.1165C127.3 53.754 127.8 57.5165 127.95 61.3665C127.987 62.229 128 63.1165 128 63.9915Z" fill="#2C4542"/>
<path d="M120.714 34.3086L77.8218 77.2006C74.9211 80.1014 69.5728 79.4557 65.8755 75.7589L64.7378 74.6211L53.2146 86.1443C51.8223 87.5369 49.2549 87.2268 47.4802 85.4524L39.4473 77.4192C37.6726 75.6448 37.3628 73.0774 38.7551 71.6851L50.2786 60.1615L49.1409 59.0238C45.4436 55.327 44.7983 49.9785 47.699 47.0779L89.5029 5.2738C102.922 11.1099 113.95 21.4121 120.714 34.3086Z" fill="#00C7AC"/>
<path d="M32.1729 80.8379C33.5652 79.4456 36.1326 79.7554 37.907 81.53L43.0481 86.6711C44.8228 88.4458 45.1326 91.0129 43.7402 92.4055L40.6975 95.4482L40.5698 95.3206L22.8967 90.114L32.1729 80.8379Z" fill="#00C7AC"/>
</g>
<defs>
<clipPath id="clip0_12_51">
<rect width="128" height="128" fill="white"/>
</clipPath>
</defs>
</svg>
